# xmcd CD database file
# Copyright (C) 1993-1998 Ti Kan
#
# Track frame offsets:
#  150
#  11157
#  24815
#  33757
#  45897
#  60740
#  72622
#  84722
#  100705
#  116087
#  131012
#  149415
#
# Disc length: 2139 seconds
#
# Revision: 1
# Processed by: cddbd v1.4b41PL1 Copyright (c) Steve Scherf et al.
# Submitted via: CDWizzard Release:4.35
#
DISCID=9d08590c
DTITLE=Various Artist - Best Of Chess Vocal Groups Vol 2
DYEAR=1900
DGENRE=
TTITLE0=Moonglows - See Saw
TTITLE1=Sonics - This Broken Heart
TTITLE2=Marathons - Peanut Butter
TTITLE3=Pastels - Been So Long
TTITLE4=Sensations (Put Another Nickel In) Music Music Music
TTITLE5=Gems - Dear One
TTITLE6=Miracles - All I Want Is You
TTITLE7=Dells - There Is
TTITLE8=Knight Brothers - Temptation 'bout To Get Me
TTITLE9=Radiants - Hold On
TTITLE10=Dells - Oh What A Night
TTITLE11=O'Jays - One Night Affair
EXTD=
EXTT0=
EXTT1=
EXTT2=
EXTT3=
EXTT4=
EXTT5=
EXTT6=
EXTT7=
EXTT8=
EXTT9=
EXTT10=
EXTT11=
PLAYORDER=
